<svg id="Layer_1" data-name="Layer 1" xmlns="http://www.w3.org/2000/svg" viewBox="0 0 32 32"><defs><style>.cls-1{fill:#333;}</style></defs><path class="cls-1" d="M8,27.6A2.23,2.23,0,0,0,10,30H22a2.23,2.23,0,0,0,2-2.4V18H8Zm2-7.2H22v7.2H10Z"/><rect class="cls-1" x="6" y="14" width="2" height="2"/><path class="cls-1" d="M10,4H22V8h2V4a2,2,0,0,0-2-2H10A2,2,0,0,0,8,4V8h2Z"/><path class="cls-1" d="M26,10H6a4,4,0,0,0-4,4V25H6V23H4V14a2,2,0,0,1,2-2H26a2,2,0,0,1,2,2v9H26v2h4V14A4,4,0,0,0,26,10Z"/></svg>