<svg id="Layer_1" data-name="Layer 1" xmlns="http://www.w3.org/2000/svg" viewBox="0 0 32 32"><defs><style>.cls-1{fill:#333;}</style></defs><path class="cls-1" d="M16.59,12.09,27,15.29V11a2,2,0,0,0-2-2H24V6a2,2,0,0,0-2-2H17V2H15V4H10A2,2,0,0,0,8,6V9H7a2,2,0,0,0-2,2v4.29l10.41-3.2A2,2,0,0,1,16.59,12.09ZM18,7h2v3H18Zm-4,3H12V7h2Z"/><path class="cls-1" d="M28,27a1.76,1.76,0,0,1-1.6,1,1.81,1.81,0,0,1-1.6-1l-2,0a1.78,1.78,0,0,1-1.6,1,1.81,1.81,0,0,1-1.6-1l-2,0A1.78,1.78,0,0,1,16,28a1.83,1.83,0,0,1-1.6-1l-2,0a1.76,1.76,0,0,1-1.6,1,1.83,1.83,0,0,1-1.6-1l-2,0A1.76,1.76,0,0,1,4,27v0H2a3.55,3.55,0,0,0,3.6,3,3.79,3.79,0,0,0,2.6-1,3.8,3.8,0,0,0,5.2,0,3.8,3.8,0,0,0,5.2,0,3.8,3.8,0,0,0,5.2,0,3.79,3.79,0,0,0,2.6,1A3.55,3.55,0,0,0,30,27Z"/><path class="cls-1" d="M5.33,25H15V14.31L5,17.4a2,2,0,0,0-1.31,2.54Z"/><path class="cls-1" d="M17,25h9.67l1.68-5.06A2,2,0,0,0,27,17.4L17,14.31Z"/></svg>