<svg id="Layer_1" data-name="Layer 1" xmlns="http://www.w3.org/2000/svg" viewBox="0 0 32 32"><defs><style>.cls-1{fill:#333;}</style></defs><path class="cls-1" d="M16,2A14,14,0,1,0,30,16,14,14,0,0,0,16,2Zm10.89,9A12,12,0,0,1,28,15H22a29.51,29.51,0,0,0-.38-4ZM25.73,9H21.19a16.12,16.12,0,0,0-1.77-4.5A12.06,12.06,0,0,1,25.73,9ZM12,15a29.08,29.08,0,0,1,.4-4h7.16a29.08,29.08,0,0,1,.4,4Zm8,2a29.08,29.08,0,0,1-.4,4H12.42a29.08,29.08,0,0,1-.4-4ZM16,4c.89,0,2.24,1.81,3.12,5H12.88C13.76,5.81,15.11,4,16,4Zm-3.42.5A16.12,16.12,0,0,0,10.81,9H6.27A12.06,12.06,0,0,1,12.58,4.5ZM5.11,11H10.4A29.51,29.51,0,0,0,10,15h-6A12,12,0,0,1,5.11,11Zm0,10a12,12,0,0,1-1.06-4h6a29.51,29.51,0,0,0,.38,4Zm1.16,2h4.54a16.12,16.12,0,0,0,1.77,4.5A12.06,12.06,0,0,1,6.27,23ZM16,28c-.89,0-2.24-1.81-3.12-5h6.24C18.24,26.19,16.89,28,16,28Zm3.42-.5A16.12,16.12,0,0,0,21.19,23h4.54A12.06,12.06,0,0,1,19.42,27.5ZM26.89,21H21.6A29.51,29.51,0,0,0,22,17h6A12,12,0,0,1,26.89,21Z"/></svg>