<svg id="Layer_1" data-name="Layer 1" xmlns="http://www.w3.org/2000/svg" viewBox="0 0 32 32"><defs><style>.cls-1{fill:#333;}</style></defs><path class="cls-1" d="M8.76,16.54l4.36-1.87,3,3a1.1,1.1,0,0,0,1.56-1.56l-3-3,1.87-4.36L9.78,2,7.87,6.46,6.21,4.79,4.79,6.21,6.46,7.87,2,9.78ZM10.53,5.86l3.4,3.4L13,11.44,9.59,8ZM8,9.59,11.44,13l-2.18.93-3.4-3.4Z"/><path class="cls-1" d="M17,4a13.11,13.11,0,0,0-2.19.2l4,4A9,9,0,1,1,8.18,18.79l-4-4A13,13,0,1,0,17,4Z"/><path class="cls-1" d="M16.9,20a3.13,3.13,0,0,1-2.2-.91l-2-2L10.1,18.14a7,7,0,1,0,8-8l-1.09,2.56,2,2A3.11,3.11,0,0,1,16.9,20Z"/></svg>