<svg id="Layer_1" data-name="Layer 1" xmlns="http://www.w3.org/2000/svg" viewBox="0 0 32 32"><defs><style>.cls-1{fill:#333;}.cls-2{fill:none;}</style></defs><path class="cls-1" d="M27.39,11.11l-6.5-6.5a2.06,2.06,0,0,0-2.92,0l-.22.22a1.94,1.94,0,0,0-.6,1.43c0,.79-.27,2.22-2.08,4s-4.77,1.58-6.3,1.19A2,2,0,0,0,6.82,12l-.21.21a2.06,2.06,0,0,0,0,2.92L16.83,25.39a2.07,2.07,0,0,0,2.93,0l.21-.21a2,2,0,0,0,.55-1.95c-.4-1.53-.76-4.35,1.18-6.3s3.24-2.1,4-2.07a2,2,0,0,0,1.44-.61l.21-.22A2.06,2.06,0,0,0,27.39,11.11Z"/><polygon class="cls-1" points="4 26 4 28 6 28 11.31 22.69 9.31 20.69 4 26"/><rect class="cls-2" width="32" height="32"/></svg>