<svg id="Layer_1" data-name="Layer 1" xmlns="http://www.w3.org/2000/svg" viewBox="0 0 32 32"><defs><style>.cls-1{fill:#333;}</style></defs><path class="cls-1" d="M16,23a4,4,0,0,0-4,4v3h8V27A4,4,0,0,0,16,23Zm2,5H14V27a2,2,0,0,1,4,0Z"/><rect class="cls-1" x="10" y="7" width="2" height="3"/><rect class="cls-1" x="15" y="7" width="2" height="3"/><rect class="cls-1" x="20" y="7" width="2" height="3"/><rect class="cls-1" x="10" y="12" width="2" height="3"/><rect class="cls-1" x="15" y="12" width="2" height="3"/><rect class="cls-1" x="20" y="12" width="2" height="3"/><rect class="cls-1" x="10" y="17" width="2" height="3"/><rect class="cls-1" x="15" y="17" width="2" height="3"/><rect class="cls-1" x="20" y="17" width="2" height="3"/><path class="cls-1" d="M25,2H7A2,2,0,0,0,5,4V28a2,2,0,0,0,2,2h3V28H7V4H25V28H22v2h3a2,2,0,0,0,2-2V4A2,2,0,0,0,25,2Z"/></svg>