<svg id="Layer_1" data-name="Layer 1" xmlns="http://www.w3.org/2000/svg" viewBox="0 0 32 32"><defs><style>.cls-1{fill:#333;}</style></defs><path class="cls-1" d="M29.71,25.7C29.22,24.7,27,21,27,21s-2.22,3.7-2.71,4.7A3.17,3.17,0,0,0,24,27a3,3,0,0,0,6,0A3.17,3.17,0,0,0,29.71,25.7ZM27,28a1,1,0,0,1-1-1,.91.91,0,0,1,.1-.43c.14-.29.48-.91.9-1.63.42.72.76,1.34.9,1.63A.91.91,0,0,1,28,27,1,1,0,0,1,27,28Z"/><path class="cls-1" d="M15.1,3,13.79,4.33l-1.13-1.2A3.87,3.87,0,0,0,7.18,8.61L8.34,9.77,3.16,15a4,4,0,0,0,0,5.62l6.29,6.28a3.95,3.95,0,0,0,5.61,0L27,14.92ZM8.59,4.55a1.85,1.85,0,0,1,2.63,0l1.16,1.21L9.76,8.36,8.59,7.2A1.88,1.88,0,0,1,8.59,4.55Zm5.06,20.89a2,2,0,0,1-2.79,0L4.58,19.16a2,2,0,0,1,0-2.79l5.18-5.18,2.31,2.31A2.08,2.08,0,0,0,12,14a2,2,0,1,0,2-2,1.89,1.89,0,0,0-.53.08l-2.3-2.31L15.1,5.85l9.07,9.07Z"/></svg>