<svg id="Layer_1" data-name="Layer 1" xmlns="http://www.w3.org/2000/svg" viewBox="0 0 32 32"><defs><style>.cls-1{fill:#333;}</style></defs><polygon class="cls-1" points="24 21.41 20.45 17.85 18.86 19.44 19.99 20.57 18.57 21.98 12.45 15.85 8 20.3 8 23 24 23 24 21.41"/><path class="cls-1" d="M17.44,18l3-3L24,18.58V9H8v8.47L12.45,13Zm3.06-7A1.5,1.5,0,1,1,19,12.5,1.5,1.5,0,0,1,20.5,11Z"/><path class="cls-1" d="M28,3H4A2,2,0,0,0,2,5V27a2,2,0,0,0,2,2H28a2,2,0,0,0,2-2V5A2,2,0,0,0,28,3ZM26,25H6V7H26Z"/></svg>