<svg id="Layer_1" data-name="Layer 1" xmlns="http://www.w3.org/2000/svg" viewBox="0 0 32 32"><defs><style>.cls-1{fill:#333;}</style></defs><path class="cls-1" d="M28,6H4A2,2,0,0,0,2,8V24a2,2,0,0,0,2,2H28a2,2,0,0,0,2-2V8A2,2,0,0,0,28,6Zm0,18H4V8H28Z"/><rect class="cls-1" x="9" y="19" width="14" height="2"/><rect class="cls-1" x="7" y="11" width="2" height="2"/><rect class="cls-1" x="7" y="15" width="2" height="2"/><rect class="cls-1" x="11" y="11" width="2" height="2"/><rect class="cls-1" x="11" y="15" width="2" height="2"/><rect class="cls-1" x="15" y="11" width="2" height="2"/><rect class="cls-1" x="15" y="15" width="2" height="2"/><rect class="cls-1" x="19" y="11" width="2" height="2"/><rect class="cls-1" x="19" y="15" width="2" height="2"/><rect class="cls-1" x="23" y="11" width="2" height="2"/><rect class="cls-1" x="23" y="15" width="2" height="2"/></svg>