<svg id="Layer_1" data-name="Layer 1" xmlns="http://www.w3.org/2000/svg" viewBox="0 0 32 32"><defs><style>.cls-1{fill:#333;}</style></defs><path class="cls-1" d="M27,27.33l-5.7-1.92c-.1,0-.21-.05-.31-.08V20.81c-.51-.53-1.22-1.3-2-2.23v6.77c-.12,0-.25.06-.37.11L13,27.6v-14l.34-.1,1.76-.66A12.93,12.93,0,0,1,14.35,11l-1.72.65a1.85,1.85,0,0,1-.7.13,2,2,0,0,1-.58-.09L4.57,9.66A1.88,1.88,0,0,0,4,9.57a2,2,0,0,0-2,2v14a2,2,0,0,0,1.43,1.94l7.92,2.4a2,2,0,0,0,.58.09,1.85,1.85,0,0,0,.7-.13l6.71-2.54a1.85,1.85,0,0,1,.7-.13,1.93,1.93,0,0,1,.63.1l5.7,1.92a1.74,1.74,0,0,0,.63.11,2,2,0,0,0,2-2V16c-.66.93-1.35,1.8-2,2.57Zm-16,.38L4,25.57v-14l6.78,2.06.23,0Z"/><path class="cls-1" d="M30,9A7,7,0,0,0,16,9c0,4,7,11,7,11S30,13,30,9ZM23,4a5,5,0,0,1,5,5c0,1.81-2.59,5.4-5,8.09C20.59,14.4,18,10.81,18,9A5,5,0,0,1,23,4Z"/><circle class="cls-1" cx="23" cy="9" r="2.5"/></svg>