<svg id="Layer_1" data-name="Layer 1" xmlns="http://www.w3.org/2000/svg" viewBox="0 0 32 32"><defs><style>.cls-1{fill:#333;}</style></defs><circle class="cls-1" cx="7.5" cy="19.5" r="1.5"/><circle class="cls-1" cx="24.5" cy="19.5" r="1.5"/><path class="cls-1" d="M29.66,15.5l-1.07-1.61a1.87,1.87,0,0,0-.93-.73L26.3,5.64a2,2,0,0,0-2-1.64H7.67a2,2,0,0,0-2,1.64L4.34,13.16a1.87,1.87,0,0,0-.93.73L2.34,15.5A2,2,0,0,0,2,16.61V24a2,2,0,0,0,2,2v2a2,2,0,0,0,2,2H7a2,2,0,0,0,2-2V26H23v2a2,2,0,0,0,2,2h1a2,2,0,0,0,2-2V26a2,2,0,0,0,2-2V16.61A2,2,0,0,0,29.66,15.5ZM7.67,6H24.33l1.27,7H6.4ZM18,24H14V22h4Zm10,0H20V20H12v4H4V16.61L5.07,15H26.93L28,16.61Z"/></svg>