<svg id="Layer_1" data-name="Layer 1" xmlns="http://www.w3.org/2000/svg" viewBox="0 0 32 32"><defs><style>.cls-1{fill:#333;}</style></defs><path class="cls-1" d="M2,11.6v14a2,2,0,0,0,1.43,1.94l6.57,2V11.3L4.57,9.66A2,2,0,0,0,2,11.6Z"/><path class="cls-1" d="M23,22.83l-1.41-1.42c-.14-.13-.35-.34-.59-.6v6.61l5.37,1.81A2,2,0,0,0,29,27.31V16a44.67,44.67,0,0,1-4.59,5.4Z"/><path class="cls-1" d="M12,12V30l7-2.54V18.58a24.38,24.38,0,0,1-4.63-7.51Z"/><path class="cls-1" d="M30,9A7,7,0,0,0,16,9c0,4,7,11,7,11S30,13,30,9ZM20.5,9A2.5,2.5,0,1,1,23,11.5,2.5,2.5,0,0,1,20.5,9Z"/></svg>