<svg id="Layer_1" data-name="Layer 1" xmlns="http://www.w3.org/2000/svg" viewBox="0 0 32 32"><defs><style>.cls-1{fill:#333;}</style></defs><path class="cls-1" d="M16,19a4,4,0,0,0-4,4v6h8V23A4,4,0,0,0,16,19Zm2,8H14V23a2,2,0,0,1,4,0Z"/><path class="cls-1" d="M25.69,4H6.31L3,12.82V13a4,4,0,0,0,3,3.86V27a2,2,0,0,0,2,2h2V27H8V16.86a4,4,0,0,0,2-1.22,4,4,0,0,0,6,0,4,4,0,0,0,6,0,4,4,0,0,0,2,1.22V27H22v2h2a2,2,0,0,0,2-2V16.86A4,4,0,0,0,29,13v-.18ZM25,15a2,2,0,0,1-2-2H21a2,2,0,0,1-4,0H15a2,2,0,0,1-4,0H9a2,2,0,0,1-4,.16L7.69,6H24.31L27,13.16A2,2,0,0,1,25,15Z"/></svg>