<svg id="Layer_1" data-name="Layer 1" xmlns="http://www.w3.org/2000/svg" viewBox="0 0 32 32"><defs><style>.cls-1{fill:#333;}</style></defs><path class="cls-1" d="M25,3H7A4,4,0,0,0,3,7V25a4,4,0,0,0,4,4H25a4,4,0,0,0,4-4V7A4,4,0,0,0,25,3ZM15,27H7a2,2,0,0,1-2-2V17H15Zm0-12H5V7A2,2,0,0,1,7,5h8ZM27,25a2,2,0,0,1-2,2H17V17H27Zm0-10H17V5h8a2,2,0,0,1,2,2Z"/><polygon class="cls-1" points="7 11 9 11 9 13 11 13 11 11 13 11 13 9 11 9 11 7 9 7 9 9 7 9 7 11"/><rect class="cls-1" x="19" y="9" width="6" height="2"/><rect class="cls-1" x="19" y="19" width="6" height="2"/><rect class="cls-1" x="19" y="23" width="6" height="2"/><polygon class="cls-1" points="8.46 24.98 10.01 23.43 11.56 24.98 12.98 23.56 11.43 22.01 12.98 20.46 11.56 19.05 10.01 20.6 8.46 19.05 7.04 20.46 8.6 22.01 7.04 23.56 8.46 24.98"/></svg>