<svg id="Layer_1" data-name="Layer 1" xmlns="http://www.w3.org/2000/svg" viewBox="0 0 32 32"><defs><style>.cls-1{fill-rule:evenodd;}</style></defs><path class="cls-1" d="M4.5,23V7h12v3.75a11.19,11.19,0,0,1,2-.57V5a3,3,0,0,0-3-3H5.5a3,3,0,0,0-3,3V25a3,3,0,0,0,3,3H12a11,11,0,0,1-2.33-5Z"/><path class="cls-1" d="M17.2,24.19h2.35V26h1.93V24.2h2.31V22.67H21.48v-.89h2.31V20.25H22.38L24.5,16H22.36l-1.8,4.25L18.81,16H16.5l2.12,4.25H17.2v1.53h2.32v.89H17.2ZM29.5,21a9,9,0,1,0-9,9A9,9,0,0,0,29.5,21Z"/></svg>