<svg id="Layer_1" data-name="Layer 1" xmlns="http://www.w3.org/2000/svg" viewBox="0 0 32 32"><defs><style>.cls-1{fill:#333;}</style></defs><polygon class="cls-1" points="4 24 2 24 2 30 8 30 8 28 4 28 4 24"/><polygon class="cls-1" points="4 4 8 4 8 2 2 2 2 8 4 8 4 4"/><polygon class="cls-1" points="28 28 24 28 24 30 30 30 30 24 28 24 28 28"/><polygon class="cls-1" points="24 2 24 4 28 4 28 8 30 8 30 2 24 2"/><path class="cls-1" d="M12,18V16H10v2H8v6h6V20h2V18H12Zm0,4H10V20h2Z"/><path class="cls-1" d="M16,12V10H14V8H8v6h6V12Zm-4,0H10V10h2Z"/><polygon class="cls-1" points="20 16 18 16 16 16 16 18 18 18 18 20 20 20 20 18 20 16"/><polygon class="cls-1" points="24 20 22 20 20 20 20 22 20 24 22 24 22 22 24 22 24 20"/><rect class="cls-1" x="16" y="22" width="2" height="2"/><path class="cls-1" d="M22,16v2h2V8H18v6h4Zm-2-4V10h2v2Z"/><rect class="cls-1" x="14" y="14" width="2" height="2"/></svg>