<svg id="Layer_1" data-name="Layer 1" xmlns="http://www.w3.org/2000/svg" viewBox="0 0 32 32"><defs><style>.cls-1{fill:#333;}</style></defs><polygon class="cls-1" points="4 24 2 24 2 30 8 30 8 28 4 28 4 24"/><polygon class="cls-1" points="2 8 4 8 4 4 8 4 8 2 2 2 2 8"/><polygon class="cls-1" points="28 28 24 28 24 30 30 30 30 24 28 24 28 28"/><polygon class="cls-1" points="24 2 24 4 28 4 28 8 30 8 30 2 24 2"/><rect class="cls-1" x="10" y="9" width="4" height="14"/><rect class="cls-1" x="16" y="9" width="2" height="14"/><rect class="cls-1" x="20" y="9" width="2" height="14"/></svg>