<svg id="Layer_1" data-name="Layer 1" xmlns="http://www.w3.org/2000/svg" viewBox="0 0 32 32"><defs><style>.cls-1{fill:#333;}.cls-2{fill:none;}</style></defs><path class="cls-1" d="M27.39,11.11l-6.5-6.5a2.05,2.05,0,0,0-2.92,0l-.22.22a1.94,1.94,0,0,0-.6,1.43c0,.79-.27,2.22-2.08,4a5.4,5.4,0,0,1-4,1.5,9.48,9.48,0,0,1-2.34-.31,2.05,2.05,0,0,0-.49-.06A2.08,2.08,0,0,0,6.82,12l-.21.21a2.06,2.06,0,0,0,0,2.92L16.84,25.39a2.05,2.05,0,0,0,2.92,0l.21-.21a2,2,0,0,0,.55-1.95c-.4-1.53-.76-4.35,1.18-6.3,1.74-1.74,3.13-2.08,3.95-2.08h.14a2,2,0,0,0,1.39-.61l.21-.22A2.06,2.06,0,0,0,27.39,11.11ZM26,12.62l-.24.23h-.09c-1.23,0-3.16.47-5.36,2.67-2,2-2.57,4.88-1.71,8.2a.06.06,0,0,1,0,.05l-.21.21,0,0a.06.06,0,0,1-.05,0L8,13.75a.06.06,0,0,1,0-.09l.21-.22,0,0a11.36,11.36,0,0,0,2.84.37,7.4,7.4,0,0,0,5.37-2.08c2.24-2.24,2.69-4.19,2.67-5.45l0,0L19.38,6a.07.07,0,0,1,.1,0l6.5,6.5A.07.07,0,0,1,26,12.62Z"/><polygon class="cls-1" points="4 26 4 28 6 28 11.31 22.69 9.31 20.69 4 26"/><rect class="cls-2" width="32" height="32"/></svg>