<svg id="Layer_1" data-name="Layer 1" xmlns="http://www.w3.org/2000/svg" viewBox="0 0 32 32"><defs><style>.cls-1{fill:#333;}</style></defs><path class="cls-1" d="M4,11A7,7,0,0,1,17.48,8.36a12.37,12.37,0,0,1,2-.25A9,9,0,1,0,8.11,19.52a12.37,12.37,0,0,1,.25-2A7,7,0,0,1,4,11Z"/><path class="cls-1" d="M7,13.92a9,9,0,0,0,2.12,1.25,11.91,11.91,0,0,1,.94-1.72,6.82,6.82,0,0,1-1.8-1Z"/><path class="cls-1" d="M10.48,8.45c.78-.33,1.89,0,3,.91l1.27-1.5A6.5,6.5,0,0,0,12,6.48V5H10V6.56a3.53,3.53,0,0,0-.41.16A2.74,2.74,0,0,0,7.86,9.06c0,2,1.92,2.63,3.28,3a12.81,12.81,0,0,1,1.67-1.54c-.34-.11-.68-.21-1-.29-1.58-.42-2-.65-2-1.16A1,1,0,0,1,10.48,8.45Z"/><path class="cls-1" d="M20,10.09A9.91,9.91,0,1,0,29.91,20,9.91,9.91,0,0,0,20,10.09Zm0,17.82A7.91,7.91,0,1,1,27.91,20,7.92,7.92,0,0,1,20,27.91Z"/><polygon class="cls-1" points="22.69 14.47 20 18.62 17.31 14.47 15 14.47 17.87 18.97 15 18.97 15 20.47 18.83 20.47 19 20.74 19 21.97 15 21.97 15 23.47 19 23.47 19 26.47 21 26.47 21 23.47 25 23.47 25 21.97 21 21.97 21 20.74 21.17 20.47 25 20.47 25 18.97 22.13 18.97 25 14.47 22.69 14.47"/></svg>