<svg id="Layer_1" data-name="Layer 1" xmlns="http://www.w3.org/2000/svg" viewBox="0 0 32 32"><defs><style>.cls-1{fill:#333;}</style></defs><path class="cls-1" d="M13.21,5.57A1.94,1.94,0,0,0,11.83,5h0A2,2,0,0,0,10,6.29L4.52,21,2.63,22.85a2.19,2.19,0,0,0,0,3.07l3.44,3.44A2.12,2.12,0,0,0,7.6,30a2.15,2.15,0,0,0,1.53-.64L11,27.48l1.13-.42.34,1A3,3,0,0,0,14,29.72,2.93,2.93,0,0,0,15.3,30a2.9,2.9,0,0,0,1-.19l3.18-1.16a3,3,0,0,0,1.78-3.84l-.35-1,4.76-1.75a2,2,0,0,0,.72-3.23Zm5.62,21.2-3.18,1.17a1,1,0,0,1-.77,0,1.07,1.07,0,0,1-.52-.57l-.34-1,5.05-1.86.35,1A1,1,0,0,1,18.83,26.77Z"/><rect class="cls-1" x="18" y="2" width="2" height="5"/><rect class="cls-1" x="25" y="12" width="5" height="2"/><rect class="cls-1" x="22.17" y="6" width="5.65" height="2" transform="translate(2.37 19.73) rotate(-45)"/></svg>