<svg id="Layer_1" data-name="Layer 1" xmlns="http://www.w3.org/2000/svg" viewBox="0 0 32 32"><defs><style>.cls-1{fill:#333;}</style></defs><path class="cls-1" d="M9,6a3,3,0,1,0,3,3A3,3,0,0,0,9,6Zm0,4a1,1,0,1,1,1-1A1,1,0,0,1,9,10Z"/><path class="cls-1" d="M29.4,16,28,14.63,26.61,16,28,17.41a.06.06,0,0,1,0,.09L17.5,28h-.09L16,26.61,14.63,28,16,29.4a2.06,2.06,0,0,0,2.91,0L29.4,18.91A2.06,2.06,0,0,0,29.4,16Z"/><path class="cls-1" d="M25.2,14.63l1.41-1.42h0L25.2,11.8,15.4,2H4.06A2.06,2.06,0,0,0,2,4.06V15.4L13.21,26.61l1.42-1.41ZM4,14.57V4.06A.06.06,0,0,1,4.06,4H14.57l9.21,9.21L13.21,23.78Z"/></svg>