<svg id="Layer_1" data-name="Layer 1" xmlns="http://www.w3.org/2000/svg" viewBox="0 0 32 32"><defs><style>.cls-1{fill:#333;}</style></defs><path class="cls-1" d="M29.71,25.7C29.22,24.7,27,21,27,21s-2.22,3.7-2.71,4.7A3.17,3.17,0,0,0,24,27a3,3,0,0,0,6,0A3.17,3.17,0,0,0,29.71,25.7Z"/><path class="cls-1" d="M15.1,3,13.79,4.33l-1.13-1.2A3.87,3.87,0,0,0,7.18,8.61L8.34,9.77,3.16,15a4,4,0,0,0,0,5.62l6.29,6.28a3.95,3.95,0,0,0,5.61,0L27,14.92ZM15,14a2,2,0,0,1-2-2,1.61,1.61,0,0,1,0-.39L9.78,8.34l0,0L8.59,7.2a1.88,1.88,0,0,1,0-2.65,1.85,1.85,0,0,1,2.63,0l1.16,1.21L11.19,6.93l3.18,3.18A1.9,1.9,0,0,1,15,10a2,2,0,0,1,0,4Z"/></svg>