<svg id="Layer_1" data-name="Layer 1" xmlns="http://www.w3.org/2000/svg" viewBox="0 0 32 32"><defs><style>.cls-1{fill:#333;}</style></defs><path class="cls-1" d="M29,24a14.18,14.18,0,0,0-4.34-2.74.49.49,0,0,1-.27-.64.56.56,0,0,1,.1-.15c1.21-1.31,1.49-2.23,1.49-5C26,12,24,10,21,10s-5,2-5,5.5c0,2.66.28,3.64,1.5,5a.5.5,0,0,1,0,.7.38.38,0,0,1-.15.09A14.18,14.18,0,0,0,13,24c-.65.65-.88,2.29-1,3.88A2,2,0,0,0,13.9,30H28a2,2,0,0,0,2-2v-.11C29.92,26.29,29.69,24.65,29,24ZM14,28a7.27,7.27,0,0,1,.42-2.62,12.32,12.32,0,0,1,3.65-2.26,2.5,2.5,0,0,0,1.35-3.26,2.46,2.46,0,0,0-.47-.73c-.72-.79-1-1.19-1-3.62,0-1.6.52-3.5,3-3.5s3,1.9,3,3.5c0,2.46-.21,2.8-1,3.61a2.49,2.49,0,0,0,.14,3.53,2.28,2.28,0,0,0,.74.47,12.48,12.48,0,0,1,3.64,2.26A7.14,7.14,0,0,1,28,28Z"/><rect class="cls-1" x="6" y="7" width="11" height="2"/><rect class="cls-1" x="6" y="11" width="8" height="2"/><rect class="cls-1" x="6" y="15" width="5" height="2"/><path class="cls-1" d="M4,4H20V8h2V4a2,2,0,0,0-2-2H4A2,2,0,0,0,2,4V22a2,2,0,0,0,2,2h6V22H4Z"/></svg>