<svg id="Layer_1" data-name="Layer 1" xmlns="http://www.w3.org/2000/svg" viewBox="0 0 32 32"><defs><style>.cls-1{fill:#333;}</style></defs><path class="cls-1" d="M25,2H7A2,2,0,0,0,5,4V20.12a2,2,0,0,0,.65,1.47L7.4,23.2A2,2,0,0,0,9,24L6,30H8.23l1-2H22.78l1,2H26l-3-6a2,2,0,0,0,1.58-.8l1.75-1.61A2,2,0,0,0,27,20.12V4A2,2,0,0,0,25,2ZM7,8h8v5H7Zm3.21,18,1-2h9.58l1,2ZM25,20.12l-1.75,1.61-.14.12L23,22H9l-.11-.15-.14-.12L7,20.12V15H25ZM25,13H17V8h8Zm0-7H7V4H25Z"/><circle class="cls-1" cx="10.5" cy="18.5" r="1.5"/><circle class="cls-1" cx="21.5" cy="18.5" r="1.5"/></svg>