<svg id="Layer_1" data-name="Layer 1" xmlns="http://www.w3.org/2000/svg" viewBox="0 0 32 32"><defs><style>.cls-1{fill:#333;}</style></defs><path class="cls-1" d="M22,17.19A6.06,6.06,0,0,1,19,18a5.92,5.92,0,0,1-3-.81A5.92,5.92,0,0,1,13,18a6.06,6.06,0,0,1-3-.81A6,6,0,0,1,7,18a6.64,6.64,0,0,1-1-.09V27a2,2,0,0,0,2,2h3.5V24.5a4.5,4.5,0,0,1,9,0V29H24a2,2,0,0,0,2-2V17.91A6.64,6.64,0,0,1,25,18,6,6,0,0,1,22,17.19Z"/><path class="cls-1" d="M16,22a2.5,2.5,0,0,0-2.5,2.5V29h5V24.5A2.5,2.5,0,0,0,16,22Z"/><path class="cls-1" d="M25.69,4H6.31L3,12a4,4,0,0,0,7,2.66l0,0a4,4,0,0,0,6,0,4,4,0,0,0,6,0l0,0A4,4,0,0,0,29,12Z"/></svg>