<svg id="Layer_1" data-name="Layer 1" xmlns="http://www.w3.org/2000/svg" viewBox="0 0 32 32"><defs><style>.cls-1{fill:#333;}</style></defs><path class="cls-1" d="M28,7H16L14.63,4.14A2,2,0,0,0,12.83,3H5.51A2,2,0,0,0,3.59,4.45L2,10V27a2,2,0,0,0,2,2H28a2,2,0,0,0,2-2V9A2,2,0,0,0,28,7Zm0,20H4V10.28L5.51,5h7.32L14.2,7.86,14.74,9H28Z"/><polygon class="cls-1" points="8 15.4 11.05 15.4 8 20 8 21 13 21 13 19.6 9.95 19.6 13 15 13 14 8 14 8 15.4"/><rect class="cls-1" x="15.3" y="14" width="1.4" height="7"/><path class="cls-1" d="M20.4,18.6h1.3a2.3,2.3,0,0,0,0-4.6H19v7h1.4Zm0-3.2h1.3a.9.9,0,1,1,0,1.8H20.4Z"/></svg>