<svg id="Layer_1" data-name="Layer 1" xmlns="http://www.w3.org/2000/svg" viewBox="0 0 32 32"><defs><style>.cls-1{fill:#333;}</style></defs><path class="cls-1" d="M10.5,9.46l.84,2.43H9.66Zm12.1.68A.58.58,0,0,0,22,9.56h-2v1.16h2A.58.58,0,0,0,22.6,10.14Zm.34,2.72a.58.58,0,0,0-.58-.58h-2.3v1.16h2.3A.58.58,0,0,0,22.94,12.86ZM29,7V25a4,4,0,0,1-4,4H7a4,4,0,0,1-4-4V7A4,4,0,0,1,7,3H25A4,4,0,0,1,29,7ZM18.5,15h3.94a1.92,1.92,0,0,0,2.06-2,1.55,1.55,0,0,0-1.39-1.58A1.48,1.48,0,0,0,24.16,10,2,2,0,0,0,22.1,8H18.5ZM14,22H7v2h7Zm0-4H7v2h7Zm0-3L11.59,8H9.41L7,15H8.59l.54-1.56h2.74L12.41,15Zm11,7H18v2h7Zm0-4H18v2h7Z"/></svg>