<svg id="Layer_1" data-name="Layer 1" xmlns="http://www.w3.org/2000/svg" viewBox="0 0 32 32"><defs><style>.cls-1{fill:#333;}</style></defs><path class="cls-1" d="M24.5,20a4.49,4.49,0,0,0-3.6,1.83l-9.11-4.55A4.51,4.51,0,0,0,12,16a4.51,4.51,0,0,0-.21-1.28l9.11-4.55A4.48,4.48,0,1,0,20,7.5a4.6,4.6,0,0,0,.08.84L10.81,13A4.43,4.43,0,0,0,7.5,11.5a4.5,4.5,0,0,0,0,9A4.43,4.43,0,0,0,10.81,19l9.27,4.64a4.6,4.6,0,0,0-.08.84A4.5,4.5,0,1,0,24.5,20Zm0-15A2.5,2.5,0,1,1,22,7.5,2.5,2.5,0,0,1,24.5,5ZM7.5,18.5A2.5,2.5,0,1,1,10,16,2.5,2.5,0,0,1,7.5,18.5Zm17,8.5A2.5,2.5,0,1,1,27,24.5,2.5,2.5,0,0,1,24.5,27Z"/></svg>