<svg id="Layer_1" data-name="Layer 1" xmlns="http://www.w3.org/2000/svg" viewBox="0 0 32 32"><defs><style>.cls-1{fill:#333;fill-rule:evenodd;}</style></defs><path class="cls-1" d="M16.35,15.12h0l-.13-.23h0a5.22,5.22,0,0,1-.26-.47,11,11,0,0,1-1.25-4h3.65a11,11,0,0,1-1.25,4c-.13.26-.26.49-.39.7h0a5.54,5.54,0,0,0,2.46-.67h0a12.38,12.38,0,0,0,1.07-4H22a5.56,5.56,0,0,0,0-1.88H20.25a12.76,12.76,0,0,0-1.09-4,5.62,5.62,0,0,0-2.45-.66h0c.13.23.26.45.4.73a11.34,11.34,0,0,1,1.24,4H14.72A11.13,11.13,0,0,1,16,4.61c.14-.28.28-.51.41-.73h0a5.62,5.62,0,0,0-2.45.62h0a12.68,12.68,0,0,0-1.11,4.06H11a5.56,5.56,0,0,0,0,1.88h1.86a12.62,12.62,0,0,0,1.08,4.05A5.6,5.6,0,0,0,16.35,15.12ZM24,9.5A7.5,7.5,0,1,1,16.5,2,7.5,7.5,0,0,1,24,9.5ZM28.6,23a1.91,1.91,0,0,0-2.3-.59L20.55,25a5.73,5.73,0,0,1-2.92.48l-3.74-.38.2-2,3.29.3.45.05h.06l.64.06A1.8,1.8,0,0,0,20,23a1.87,1.87,0,0,0,.55-1.44A1.84,1.84,0,0,0,19,19.81l-1-.21L15.09,19a2.14,2.14,0,0,0-.94,0L8,21v7l10.54,1.93a4.65,4.65,0,0,0,.83.07,4.86,4.86,0,0,0,2.23-.54l.68-.34L28,25.87A1.93,1.93,0,0,0,29,24.55,2,2,0,0,0,28.6,23ZM3,29V20H5a1,1,0,0,1,1,1v7a1,1,0,0,1-1,1Z"/></svg>