<svg id="Layer_1" data-name="Layer 1" xmlns="http://www.w3.org/2000/svg" viewBox="0 0 32 32"><defs><style>.cls-1{fill:#333;}</style></defs><path class="cls-1" d="M28,4H4A2,2,0,0,0,2,6V26a2,2,0,0,0,2,2H28a2,2,0,0,0,2-2V6A2,2,0,0,0,28,4Zm0,22H4V6H28Z"/><rect class="cls-1" x="7" y="8" width="3" height="2"/><rect class="cls-1" x="7" y="22" width="3" height="2"/><rect class="cls-1" x="12" y="8" width="3" height="2"/><rect class="cls-1" x="12" y="22" width="3" height="2"/><rect class="cls-1" x="17" y="8" width="3" height="2"/><rect class="cls-1" x="17" y="22" width="3" height="2"/><rect class="cls-1" x="22" y="8" width="3" height="2"/><rect class="cls-1" x="22" y="22" width="3" height="2"/><polygon class="cls-1" points="13 20 20 16 13 12 13 20"/></svg>