<svg id="Layer_1" data-name="Layer 1" xmlns="http://www.w3.org/2000/svg" viewBox="0 0 32 32"><defs><style>.cls-1{fill:#333;}.cls-2{fill:none;}</style></defs><path class="cls-1" d="M26,5H24V7h2V28H6V7H8V5H6A2,2,0,0,0,4,7V28a2,2,0,0,0,2,2H26a2,2,0,0,0,2-2V7A2,2,0,0,0,26,5Z"/><path class="cls-1" d="M10,10H22V4a2,2,0,0,0-2-2H12a2,2,0,0,0-2,2Zm2-6h8V8H12Z"/><rect class="cls-1" x="10" y="14" width="12" height="2"/><rect class="cls-1" x="10" y="18" width="12" height="2"/><rect class="cls-1" x="10" y="22" width="12" height="2"/><rect class="cls-2" width="32" height="32"/></svg>