<svg id="Layer_1" data-name="Layer 1" xmlns="http://www.w3.org/2000/svg" viewBox="0 0 32 32"><defs><style>.cls-1{fill:#333;}</style></defs><path class="cls-1" d="M19.12,23H12.88c.88,3.19,2.23,5,3.12,5S18.24,26.19,19.12,23Z"/><path class="cls-1" d="M12.88,9h6.24C18.24,5.81,16.89,4,16,4S13.76,5.81,12.88,9Z"/><path class="cls-1" d="M12.42,21h7.16a29.08,29.08,0,0,0,.4-4H12A29.08,29.08,0,0,0,12.42,21Z"/><path class="cls-1" d="M12.42,11a29.08,29.08,0,0,0-.4,4h8a29.08,29.08,0,0,0-.4-4Z"/><path class="cls-1" d="M16,2A14,14,0,1,0,30,16,14,14,0,0,0,16,2ZM26.89,21a11.34,11.34,0,0,1-1.16,2H21.19a16.12,16.12,0,0,1-1.77,4.5,11.95,11.95,0,0,1-6.84,0A16.12,16.12,0,0,1,10.81,23H6.27a11.34,11.34,0,0,1-1.16-2H10.4A29.51,29.51,0,0,1,10,17h-6c0-.33,0-.66,0-1s0-.67,0-1h6a29.51,29.51,0,0,1,.38-4H5.11A11.34,11.34,0,0,1,6.27,9h4.54a16.12,16.12,0,0,1,1.77-4.5,11.95,11.95,0,0,1,6.84,0A16.12,16.12,0,0,1,21.19,9h4.54a11.34,11.34,0,0,1,1.16,2H21.6A29.51,29.51,0,0,1,22,15h6c0,.33.05.66.05,1s0,.67-.05,1H22a29.51,29.51,0,0,1-.38,4Z"/></svg>