<svg id="Layer_1" data-name="Layer 1" xmlns="http://www.w3.org/2000/svg" viewBox="0 0 32 32"><defs><style>.cls-1{fill:#333;}.cls-2{fill:none;}</style></defs><path class="cls-1" d="M20,8a14.13,14.13,0,0,1,1.46.09A10,10,0,0,0,12,2C6.48,2,2,6,2,11a8.34,8.34,0,0,0,1.73,5.06L2,22l6-2.42c0-.19,0-.38,0-.58C8,12.93,13.38,8,20,8Z"/><path class="cls-1" d="M30,19c0-5-4.48-9-10-9s-10,4-10,9,4.48,9,10,9a10.82,10.82,0,0,0,3.54-.59L30,30l-1.73-5.94A8.34,8.34,0,0,0,30,19ZM17,20H15V18h2Zm4,0H19V18h2Zm4,0H23V18h2Z"/><rect class="cls-2" width="32" height="32"/></svg>