<svg id="Layer_1" data-name="Layer 1" xmlns="http://www.w3.org/2000/svg" viewBox="0 0 32 32"><defs><style>.cls-1{fill:#333;}</style></defs><circle class="cls-1" cx="15" cy="5" r="3"/><path class="cls-1" d="M7,27v3c3.56,0,7.22-2.21,7.88-6L12,22.81C12,25.43,9.46,27,7,27Z"/><path class="cls-1" d="M20,16.09A9.93,9.93,0,0,0,27,19V16a6.86,6.86,0,0,1-4.91-2L19.15,11a3.45,3.45,0,0,0-2.48-1H13.73a3.5,3.5,0,0,0-1,.14l-1.39.4A8.85,8.85,0,0,0,5,19H8a5.82,5.82,0,0,1,4-5.5v7.13h0l3.93,1.69.35.18A8.33,8.33,0,0,1,21,30h3a11.34,11.34,0,0,0-6-10V14.12Z"/></svg>