<svg id="Layer_1" data-name="Layer 1" xmlns="http://www.w3.org/2000/svg" viewBox="0 0 32 32"><defs><style>.cls-1{fill:#333;}.cls-2{fill:none;}</style></defs><path class="cls-1" d="M21.5,14.09A7.18,7.18,0,0,0,23.13,12H19.87A7.18,7.18,0,0,0,21.5,14.09Z"/><polygon class="cls-1" points="8.92 14 11.08 14 10 10.87 8.92 14"/><path class="cls-1" d="M28,2H4A2,2,0,0,0,2,4V23a2,2,0,0,0,2,2h7.5L16,30l4.5-5H28a2,2,0,0,0,2-2V4A2,2,0,0,0,28,2ZM12.45,18l-.69-2H8.24l-.69,2h-2L8.6,9h2.8l3.1,9ZM26.5,12H25.28a8.27,8.27,0,0,1-2.08,3.24,7.37,7.37,0,0,0,3.3.76v2a9.39,9.39,0,0,1-5-1.43,9.39,9.39,0,0,1-5,1.43V16a7.37,7.37,0,0,0,3.3-.76A8.27,8.27,0,0,1,17.72,12H16.5V10h4V8h2v2h4Z"/><rect class="cls-2" width="32" height="32"/></svg>