<svg id="Layer_1" data-name="Layer 1" xmlns="http://www.w3.org/2000/svg" viewBox="0 0 32 32"><defs><style>.cls-1{fill:#333;}</style></defs><path class="cls-1" d="M30,14V6a2,2,0,0,0-2-2H4A2,2,0,0,0,2,6v8a2,2,0,0,1,0,4v8a2,2,0,0,0,2,2H28a2,2,0,0,0,2-2V18a2,2,0,0,1,0-4Zm-2-1.46a4,4,0,0,0,0,6.92V26H4V19.46a4,4,0,0,0,0-6.92V6H28Z"/><rect class="cls-1" x="10" y="14" width="2" height="4"/><rect class="cls-1" x="10" y="8" width="2" height="4"/><rect class="cls-1" x="10" y="20" width="2" height="4"/></svg>