<svg id="Layer_1" data-name="Layer 1" xmlns="http://www.w3.org/2000/svg" viewBox="0 0 32 32"><defs><style>.cls-1{fill:#333;}</style></defs><path class="cls-1" d="M7.72,17.67H9.31l1.86,3.15,0,0h2.17L10.92,17.1l.09,0a2.68,2.68,0,0,0,1.45-2.64A3.33,3.33,0,0,0,9,11.15H6v9.7H7.72Zm0-4.92H9a1.66,1.66,0,0,1,0,3.32H7.72Z"/><path class="cls-1" d="M16,19.42a3,3,0,0,1-2.2-1.12l0,0-1.06,1.17,0,0A4.15,4.15,0,0,0,16,21c2,0,3.42-1.17,3.42-2.84,0-1.46-.79-2.32-2.73-3v0a9.76,9.76,0,0,1-1.35-.5,1,1,0,0,1-.62-.92,1.29,1.29,0,0,1,1.38-1.19,2.39,2.39,0,0,1,1.72.78l0,0L19,12.14l0,0A4,4,0,0,0,16.1,11a2.94,2.94,0,0,0-3.2,2.77c0,1.41.81,2.21,2.89,2.86a5.34,5.34,0,0,1,1.19.45,1.13,1.13,0,0,1,.63,1.1C17.61,18.93,17,19.42,16,19.42Z"/><path class="cls-1" d="M22.36,16.63a5.34,5.34,0,0,1,1.19.45,1.13,1.13,0,0,1,.63,1.1c0,.75-.62,1.24-1.59,1.24a3,3,0,0,1-2.2-1.12l0,0L19.3,19.43l0,0A4.15,4.15,0,0,0,22.58,21c2,0,3.42-1.17,3.42-2.84,0-1.46-.79-2.32-2.72-3l0,0v0a9.76,9.76,0,0,1-1.35-.5,1,1,0,0,1-.62-.92,1.29,1.29,0,0,1,1.38-1.19,2.39,2.39,0,0,1,1.72.78l0,0,1.09-1.26,0,0A4,4,0,0,0,22.67,11a2.94,2.94,0,0,0-3.2,2.77C19.47,15.18,20.28,16,22.36,16.63Z"/><path class="cls-1" d="M28,6H4A2,2,0,0,0,2,8V24a2,2,0,0,0,2,2H28a2,2,0,0,0,2-2V8A2,2,0,0,0,28,6Zm0,18H4V8H28Z"/></svg>