<svg id="Layer_1" data-name="Layer 1" xmlns="http://www.w3.org/2000/svg" viewBox="0 0 32 32"><defs><style>.cls-1{fill:#333;}</style></defs><polygon class="cls-1" points="21 2 21 9 28 9 21 2"/><path class="cls-1" d="M16,15.4h-.6v4.2H16A1.6,1.6,0,0,0,17.6,18V17A1.6,1.6,0,0,0,16,15.4Z"/><path class="cls-1" d="M10.7,15.4H9.4v1.8h1.3a.9.9,0,1,0,0-1.8Z"/><path class="cls-1" d="M19,9V2H6A2,2,0,0,0,4,4V28a2,2,0,0,0,2,2H26a2,2,0,0,0,2-2V11H21A2,2,0,0,1,19,9Zm-8.3,9.6H9.4V21H8V14h2.7a2.3,2.3,0,0,1,0,4.6ZM19,18a3,3,0,0,1-3,3H14V14h2a3,3,0,0,1,3,3Zm5-4v1.4H21.4V17h2.2v1.4H21.4V21H20V14h4Z"/></svg>