<svg id="Layer_1" data-name="Layer 1" xmlns="http://www.w3.org/2000/svg" viewBox="0 0 32 32"><defs><style>.cls-1{fill:#333;}</style></defs><path class="cls-1" d="M22,8H4a2,2,0,0,0-2,2V24a2,2,0,0,0,2,2H9l4,4,4-4h5a2,2,0,0,0,2-2V10A2,2,0,0,0,22,8Zm0,16H16.17l-.58.59L13,27.17l-2.59-2.58L9.83,24H4V10H22Z"/><rect class="cls-1" x="7" y="14" width="12" height="2"/><rect class="cls-1" x="7" y="19" width="6" height="2"/><path class="cls-1" d="M28,2H10A2,2,0,0,0,8,4V6h2V4H28V18H26v2h2a2,2,0,0,0,2-2V4A2,2,0,0,0,28,2Z"/></svg>