<svg id="Layer_1" data-name="Layer 1" xmlns="http://www.w3.org/2000/svg" viewBox="0 0 32 32"><defs><style>.cls-1{fill:#333;}</style></defs><path class="cls-1" d="M25,19a24.73,24.73,0,0,0-4.85-3.39,1,1,0,0,1-.23-1.55C21.31,12.58,22,11.33,22,8a5.76,5.76,0,0,0-6-6,5.76,5.76,0,0,0-6,6c0,3.33.69,4.58,2.08,6.06a1,1,0,0,1-.23,1.55A24.73,24.73,0,0,0,7,19c-1.68,1.68-1.95,5.46-2,9a2,2,0,0,0,2,2H25a2,2,0,0,0,2-2C27,24.46,26.68,20.68,25,19ZM7,28c0-1.56.08-6.28,1.4-7.61a21.41,21.41,0,0,1,4.42-3.05,3,3,0,0,0,.71-4.66c-1-1-1.54-1.79-1.54-4.7a3.76,3.76,0,0,1,4-4,3.76,3.76,0,0,1,4,4c0,2.91-.56,3.65-1.54,4.7a3,3,0,0,0,.71,4.66,21.41,21.41,0,0,1,4.42,3.05C24.91,21.74,25,26.46,25,28Z"/></svg>