<svg id="Layer_1" data-name="Layer 1" xmlns="http://www.w3.org/2000/svg" viewBox="0 0 32 32"><defs><style>.cls-1{fill:#333;}</style></defs><path class="cls-1" d="M29.29,2.71A2.29,2.29,0,0,0,27.61,2c-2.14,0-4.68,2.55-5.86,3.72L19.16,8.31,4.73,5.9a2.11,2.11,0,0,0-.35,0,2.13,2.13,0,0,0-1.51.62l-.56.55A1.07,1.07,0,0,0,2.49,8.7l9.88,6.4L9.23,18.25l-3.66-.92a2.14,2.14,0,0,0-2,.56l-.49.49A1.08,1.08,0,0,0,3.22,20l3.27,2.18a3.2,3.2,0,0,0,3.19,3.31h.11L12,28.78a1.08,1.08,0,0,0,1.65.17l.49-.49a2.14,2.14,0,0,0,.56-2l-.92-3.66,3.15-3.14,6.4,9.88a1.05,1.05,0,0,0,.89.49,1.07,1.07,0,0,0,.76-.31l.55-.56a2.13,2.13,0,0,0,.6-1.86L23.69,12.84l2.59-2.59C27.79,8.74,31.56,5,29.29,2.71Zm-7,8.71-.73.73.17,1L24,26.94l-5.43-8.4-1.35-2.08-1.74,1.75-5,5a1.2,1.2,0,0,1-1.7-1.7l5-5,1.75-1.74-2.08-1.35L5.06,8l13.77,2.29,1,.17.73-.73,2.58-2.58C25.25,5.06,26.74,4,27.61,4a.31.31,0,0,1,.27.12c.14.14.66,1-3,4.72Z"/></svg>