<svg id="Layer_1" data-name="Layer 1" xmlns="http://www.w3.org/2000/svg" viewBox="0 0 32 32"><defs><style>.cls-1{fill:#333;}</style></defs><circle class="cls-1" cx="7.5" cy="28.5" r="1.5"/><circle class="cls-1" cx="14.5" cy="28.5" r="1.5"/><path class="cls-1" d="M6,14H2v2H4.34L6,25H16l1-8H6.55Zm8.73,5-.5,4H7.64l-.73-4Z"/><path class="cls-1" d="M22,2.42A11,11,0,0,0,8,13a12.81,12.81,0,0,0,.09,1.39l.12.66h2a9,9,0,1,1,11.83,6.47,8.88,8.88,0,0,1-3.68.5l-.24,2A11,11,0,0,0,22,2.42Z"/><polygon class="cls-1" points="17 8 17 15 25 15 25 13 19 13 19 8 17 8"/></svg>