<svg id="Layer_1" data-name="Layer 1" xmlns="http://www.w3.org/2000/svg" viewBox="0 0 32 32"><defs><style>.cls-1{fill:#333;}</style></defs><rect class="cls-1" x="9" y="19" width="2" height="2"/><rect class="cls-1" x="13" y="19" width="2" height="2"/><rect class="cls-1" x="17" y="19" width="2" height="2"/><rect class="cls-1" x="21" y="19" width="2" height="2"/><path class="cls-1" d="M27,5a2,2,0,0,0-2-2H7A2,2,0,0,0,5,5V17H27ZM25,15H7V5H25Z"/><path class="cls-1" d="M28.94,26.51,27.41,19h-2L27,26.91V27H21V23H11v4H5s0,0,0,0v-.07L6.63,19h-2L3.06,26.51A2,2,0,0,0,4.94,29H27.06A2,2,0,0,0,28.94,26.51ZM19,27H13V25h6Z"/></svg>