<svg id="Layer_1" data-name="Layer 1" xmlns="http://www.w3.org/2000/svg" viewBox="0 0 32 32"><defs><style>.cls-1{fill:#333;}</style></defs><path class="cls-1" d="M12.88,24.32l-5.29,5.3-1-5-5-1,4.15-4.14A12,12,0,0,0,12.88,24.32Zm12.56-4.84a12.06,12.06,0,0,1-7.15,4.84l5.3,5.3,1-5,5-1ZM15.59,2.62a10,10,0,1,0,10,10,10,10,0,0,0-10-10Zm3.66,8.78a2.83,2.83,0,0,1-2.9,2.86H14.9V17H13.29V8.55h3.06A2.82,2.82,0,0,1,19.25,11.4Zm-1.71,0A1.29,1.29,0,0,0,16.24,10H14.9v2.72h1.34A1.32,1.32,0,0,0,17.54,11.38Z"/></svg>