<svg id="Layer_1" data-name="Layer 1" xmlns="http://www.w3.org/2000/svg" viewBox="0 0 32 32"><defs><style>.cls-1{fill:#333;}.cls-2{fill:none;}</style></defs><path class="cls-1" d="M8.74,16h3.52L13,18H15L11.9,9H9.1L6,18H8.05Zm1.76-5.13L11.58,14H9.42Z"/><path class="cls-1" d="M26,18V16a7.37,7.37,0,0,1-3.3-.76A8.27,8.27,0,0,0,24.78,12H26V10H22V8H20v2H16v2h1.22a8.27,8.27,0,0,0,2.08,3.24A7.37,7.37,0,0,1,16,16v2a9.39,9.39,0,0,0,5-1.43A9.39,9.39,0,0,0,26,18Zm-6.63-6h3.26A7.18,7.18,0,0,1,21,14.09,7.18,7.18,0,0,1,19.37,12Z"/><path class="cls-1" d="M28,2H4A2,2,0,0,0,2,4V23a2,2,0,0,0,2,2h7.5L16,30l4.5-5H28a2,2,0,0,0,2-2V4A2,2,0,0,0,28,2Zm0,21H19.61l-.6.66L16,27l-3-3.35-.6-.66H4V4H28Z"/><rect class="cls-2" width="32" height="32"/></svg>