<svg id="Layer_1" data-name="Layer 1" xmlns="http://www.w3.org/2000/svg" viewBox="0 0 32 32"><defs><style>.cls-1{fill:#333;}</style></defs><path class="cls-1" d="M3,25a4,4,0,0,0,4,4h8V17H3Zm3-3.54L7.46,20,9,21.6,10.56,20,12,21.46,10.42,23,12,24.56,10.56,26,9,24.42,7.46,26,6,24.56,7.6,23Z"/><path class="cls-1" d="M3,7v8H15V3H7A4,4,0,0,0,3,7ZM8,6h2V8h2v2H10v2H8V10H6V8H8Z"/><path class="cls-1" d="M17,29h8a4,4,0,0,0,4-4V17H17Zm3-9h6v2H20Zm0,4h6v2H20Z"/><path class="cls-1" d="M25,3H17V15H29V7A4,4,0,0,0,25,3Zm1,7H20V8h6Z"/></svg>