<svg id="Layer_1" data-name="Layer 1" xmlns="http://www.w3.org/2000/svg" viewBox="0 0 32 32"><defs><style>.cls-1{fill:#333;}</style></defs><path class="cls-1" d="M24,18a6,6,0,1,0,6,6A6,6,0,0,0,24,18Zm0,10a4,4,0,0,1-3.86-3h7.72A4,4,0,0,1,24,28Zm-3.86-5a4,4,0,0,1,7.72,0Z"/><path class="cls-1" d="M16,24a8,8,0,0,1,3.77-6.78c-.94-.64-1.91-1.21-2.62-1.61a1,1,0,0,1-.23-1.55C18.31,12.58,19,11.33,19,8a5.76,5.76,0,0,0-6-6A5.76,5.76,0,0,0,7,8c0,3.33.69,4.58,2.08,6.06a1,1,0,0,1-.23,1.55A24.73,24.73,0,0,0,4,19c-1.68,1.68-1.95,5.46-2,9a2,2,0,0,0,2,2H18.73A8,8,0,0,1,16,24Z"/></svg>