<svg id="Layer_1" data-name="Layer 1" xmlns="http://www.w3.org/2000/svg" viewBox="0 0 32 32"><defs><style>.cls-1{fill:#333;}</style></defs><path class="cls-1" d="M29.35,23.89l-4.62-4.62a2.22,2.22,0,0,0-3.14,0L19.2,21.66a1.11,1.11,0,0,1-.78.33A1,1,0,0,1,18,21.9a15.1,15.1,0,0,1-4.85-3.06A15.1,15.1,0,0,1,10.1,14a1.08,1.08,0,0,1,.24-1.19l2.39-2.39a2.22,2.22,0,0,0,0-3.14L8.11,2.65A2.22,2.22,0,0,0,5,2.65L2.65,5A2.25,2.25,0,0,0,2,6.6,22.74,22.74,0,0,0,25.4,30h.05A2.23,2.23,0,0,0,27,29.35L29.35,27A2.22,2.22,0,0,0,29.35,23.89Zm-1.41,1.72-2.33,2.33a.22.22,0,0,1-.16.06h-.28a20.51,20.51,0,0,1-15.1-6.06A20.51,20.51,0,0,1,4,6.83V6.56a.24.24,0,0,1,.06-.17L6.39,4.06a.22.22,0,0,1,.3,0l4.63,4.63a.22.22,0,0,1,0,.3L8.93,11.38a3.08,3.08,0,0,0-.68,3.37,17.41,17.41,0,0,0,3.49,5.51,17.41,17.41,0,0,0,5.51,3.49,3,3,0,0,0,1.17.24,3.1,3.1,0,0,0,2.2-.92L23,20.68a.22.22,0,0,1,.3,0l4.63,4.63a.22.22,0,0,1,0,.3Z"/></svg>