<svg id="Layer_1" data-name="Layer 1" xmlns="http://www.w3.org/2000/svg" viewBox="0 0 32 32"><defs><style>.cls-1{fill:#333;}</style></defs><path class="cls-1" d="M16.35,8.55H13.29V17H14.9V14.26h1.45a2.86,2.86,0,1,0,0-5.71Zm-.11,4.21H14.9V10h1.34a1.29,1.29,0,0,1,1.3,1.34A1.32,1.32,0,0,1,16.24,12.76ZM12.88,24.32l-5.29,5.3-1-5-5-1,4.15-4.14A12,12,0,0,0,12.88,24.32Zm2.71-19.7a8,8,0,1,1-8,8,8,8,0,0,1,8-8m0-2a10,10,0,1,0,10,10,10,10,0,0,0-10-10Zm14,21-5,1-1,5-5.3-5.3a12.06,12.06,0,0,0,7.15-4.84Z"/></svg>