<svg id="Layer_1" data-name="Layer 1" xmlns="http://www.w3.org/2000/svg" viewBox="0 0 32 32"><defs><style>.cls-1{fill:#333;}</style></defs><path class="cls-1" d="M29.61,28.33a17.12,17.12,0,0,0-.41-2.27,1.91,1.91,0,0,0-.59-1,14.7,14.7,0,0,0-3.91-2.27,1.6,1.6,0,0,1-.95-1.12,1.56,1.56,0,0,1,.39-1.41c1.06-1.13,1.33-1.78,1.33-4.53,0-3-1.59-4.75-4.34-4.75s-4.34,1.73-4.34,4.75c0,2.75.26,3.4,1.32,4.53a1.54,1.54,0,0,1,.39,1.41,1.58,1.58,0,0,1-.95,1.12,14.85,14.85,0,0,0-3.91,2.27,1.91,1.91,0,0,0-.59,1,18.91,18.91,0,0,0-.41,2.27A1.5,1.5,0,0,0,14,30H28.1a1.5,1.5,0,0,0,1.52-1.5A.91.91,0,0,0,29.61,28.33Z"/><path class="cls-1" d="M14.79,15.75c0-4.1,2.48-6.75,6.34-6.75a8.46,8.46,0,0,1,.87.05V4a2,2,0,0,0-2-2H4A2,2,0,0,0,2,4V22a2,2,0,0,0,2,2h7.91a4.47,4.47,0,0,1,.43-.44,16.4,16.4,0,0,1,3.9-2.37C15,19.7,14.79,18.41,14.79,15.75ZM6,7H16V9H6Zm4,10H6V15h4Zm3-4H6V11h7Z"/></svg>