<svg id="Layer_1" data-name="Layer 1" xmlns="http://www.w3.org/2000/svg" viewBox="0 0 32 32"><defs><style>.cls-1{fill:#333;}</style></defs><path class="cls-1" d="M11,8H9.41L7,15H8.59l.54-1.56h2.74L12.41,15H14L11.59,8ZM9.66,11.89l.84-2.43.84,2.43Z"/><path class="cls-1" d="M25,3H7A4,4,0,0,0,3,7V25a4,4,0,0,0,4,4H25a4,4,0,0,0,4-4V7A4,4,0,0,0,25,3Zm2,22a2,2,0,0,1-2,2H7a2,2,0,0,1-2-2V7A2,2,0,0,1,7,5H25a2,2,0,0,1,2,2Z"/><path class="cls-1" d="M24.5,13a1.55,1.55,0,0,0-1.39-1.58A1.48,1.48,0,0,0,24.16,10,2,2,0,0,0,22.1,8H18.5v7h3.94A1.92,1.92,0,0,0,24.5,13ZM20.06,9.56h2a.58.58,0,0,1,0,1.16h-2Zm0,3.88V12.28h2.3a.58.58,0,1,1,0,1.16Z"/><rect class="cls-1" x="7" y="18" width="7" height="2"/><rect class="cls-1" x="7" y="22" width="7" height="2"/><rect class="cls-1" x="18" y="18" width="7" height="2"/><rect class="cls-1" x="18" y="22" width="7" height="2"/></svg>