<svg id="Layer_1" data-name="Layer 1" xmlns="http://www.w3.org/2000/svg" viewBox="0 0 32 32"><defs><style>.cls-1{fill:#333;}</style></defs><path class="cls-1" d="M24,18a6,6,0,1,0,6,6A6,6,0,0,0,24,18Zm0,10a4,4,0,0,1-3.86-3h7.72A4,4,0,0,1,24,28Zm-3.86-5a4,4,0,0,1,7.72,0Z"/><path class="cls-1" d="M4,28c0-1.56.08-6.28,1.4-7.61a21.41,21.41,0,0,1,4.42-3.05,3,3,0,0,0,.71-4.66C9.56,11.65,9,10.91,9,8a3.76,3.76,0,0,1,4-4,3.76,3.76,0,0,1,4,4c0,2.91-.56,3.65-1.54,4.7a3,3,0,0,0,.71,4.66c.73.4,1.39.8,2,1.19a8.2,8.2,0,0,1,1.61-1.33c-.94-.64-1.91-1.21-2.62-1.61a1,1,0,0,1-.23-1.55C18.31,12.58,19,11.33,19,8a5.76,5.76,0,0,0-6-6A5.76,5.76,0,0,0,7,8c0,3.33.69,4.58,2.08,6.06a1,1,0,0,1-.23,1.55A24.73,24.73,0,0,0,4,19c-1.68,1.68-1.95,5.46-2,9a2,2,0,0,0,2,2H18.73a7.73,7.73,0,0,1-1.64-2Z"/></svg>