<svg id="Layer_1" data-name="Layer 1" xmlns="http://www.w3.org/2000/svg" viewBox="0 0 32 32"><defs><style>.cls-1{fill:#333;}</style></defs><path class="cls-1" d="M24.5,23.09A18.93,18.93,0,0,0,30,16S26,6,16,6A13.62,13.62,0,0,0,9.2,7.78l-6-6L1.8,3.21l5.7,5.7A18.93,18.93,0,0,0,2,16S6,26,16,26a13.62,13.62,0,0,0,6.8-1.78l6,6,1.41-1.41ZM16,24C8.9,24,5.28,18.12,4.2,16a16.48,16.48,0,0,1,4.72-5.66l2.91,2.91a5,5,0,0,0,6.92,6.92l2.57,2.57A11.57,11.57,0,0,1,16,24Zm1.29-5.3a3,3,0,0,1-4-4Zm-2.58-5.4a3,3,0,0,1,4,4l-2-2Zm5.46,5.45a5,5,0,0,0-6.92-6.92L10.68,9.26A11.57,11.57,0,0,1,16,8c7.1,0,10.72,5.88,11.8,8a16.48,16.48,0,0,1-4.72,5.66Z"/></svg>