<svg id="Layer_1" data-name="Layer 1" xmlns="http://www.w3.org/2000/svg" viewBox="0 0 32 32"><defs><style>.cls-1{fill:#333;}</style></defs><path class="cls-1" d="M26,28H6V4H18V2H6A2,2,0,0,0,4,4V28a2,2,0,0,0,2,2H26a2,2,0,0,0,2-2V12H26Z"/><path class="cls-1" d="M22,10h6L20,2V8A2,2,0,0,0,22,10Z"/><path class="cls-1" d="M8,14v7H9.4V18.6h1.3a2.3,2.3,0,0,0,0-4.6Zm3.6,2.3a.9.9,0,0,1-.9.9H9.4V15.4h1.3A.9.9,0,0,1,11.6,16.3Z"/><path class="cls-1" d="M14,14v7h2a3,3,0,0,0,3-3V17a3,3,0,0,0-3-3Zm3.6,3v1A1.6,1.6,0,0,1,16,19.6h-.6V15.4H16A1.6,1.6,0,0,1,17.6,17Z"/><polygon class="cls-1" points="21.4 18.4 23.6 18.4 23.6 17 21.4 17 21.4 15.4 24 15.4 24 14 21.4 14 20 14 20 21 21.4 21 21.4 18.4"/></svg>