<svg id="Layer_1" data-name="Layer 1" xmlns="http://www.w3.org/2000/svg" viewBox="0 0 32 32"><defs><style>.cls-1{fill:#333;}</style></defs><path class="cls-1" d="M28,2H23a2,2,0,0,0-2,2V8h9V4A2,2,0,0,0,28,2Zm0,4H23V4h5Z"/><path class="cls-1" d="M21,16H13v6H23v8h5a2,2,0,0,0,2-2V10H21Zm2-4h5V28H25V20H15V18h8Z"/><path class="cls-1" d="M13,28a2,2,0,0,0,2,2h6V24H13Zm2-2h4v2H15Z"/><path class="cls-1" d="M2,21a2,2,0,0,0,2,2H5v5a2,2,0,0,0,2,2H9a2,2,0,0,0,2-2V16H2Zm2-3H9V28H7V21H4Z"/><path class="cls-1" d="M8,4A2,2,0,0,0,6,2H4A2,2,0,0,0,2,4V8H8ZM6,6H4V4H6Z"/><polygon class="cls-1" points="10 10 2 10 2 12 12 12 12 2 10 2 10 10"/></svg>