<svg id="Layer_1" data-name="Layer 1" xmlns="http://www.w3.org/2000/svg" viewBox="0 0 32 32"><defs><style>.cls-1{fill:#333;}</style></defs><polygon class="cls-1" points="4 24 2 24 2 28 2 30 8 30 8 28 4 28 4 24"/><polygon class="cls-1" points="4 4 8 4 8 2 4 2 2 2 2 8 4 8 4 4"/><polygon class="cls-1" points="28 28 24 28 24 30 28 30 30 30 30 24 28 24 28 28"/><polygon class="cls-1" points="24 2 24 4 28 4 28 8 30 8 30 4 30 2 24 2"/><path class="cls-1" d="M6,26H26V6H6ZM20,9h2V23H20ZM16,9h2V23H16ZM10,9h4V23H10Z"/></svg>