<svg id="Layer_1" data-name="Layer 1" xmlns="http://www.w3.org/2000/svg" viewBox="0 0 32 32"><defs><style>.cls-1{fill:#333;}</style></defs><path class="cls-1" d="M24,6a2,2,0,0,0-2-2H20a2,2,0,0,0-2,2H3V8H18a2,2,0,0,0,2,2h2a2,2,0,0,0,2-2h5V6ZM22,8H20V6h2Z"/><path class="cls-1" d="M22,22H20a2,2,0,0,0-2,2H3v2H18a2,2,0,0,0,2,2h2a2,2,0,0,0,2-2h5V24H24A2,2,0,0,0,22,22Zm0,4H20V24h2Z"/><path class="cls-1" d="M11,13H9a2,2,0,0,0-2,2H3v2H7a2,2,0,0,0,2,2h2a2,2,0,0,0,2-2H29V15H13A2,2,0,0,0,11,13Zm0,4H9V15h2Z"/></svg>