<svg id="Layer_1" data-name="Layer 1" xmlns="http://www.w3.org/2000/svg" viewBox="0 0 32 32"><defs><style>.cls-1{fill:#333;}</style></defs><path class="cls-1" d="M5,27a2,2,0,0,0,2,2h6V18H5Z"/><rect class="cls-1" x="15" y="18" width="2" height="11"/><path class="cls-1" d="M19,29h6a2,2,0,0,0,2-2V18H19Z"/><rect class="cls-1" x="15" y="9" width="2" height="7"/><path class="cls-1" d="M11,3A4,4,0,0,0,7.55,9H5a2,2,0,0,0-2,2v5H13V9H11a2,2,0,1,1,2-2V9h2V7A4,4,0,0,0,11,3Z"/><path class="cls-1" d="M27,9H24.45A4,4,0,1,0,17,7V9h2V7a2,2,0,1,1,2,2H19v7H29V11A2,2,0,0,0,27,9Z"/></svg>