<svg id="Layer_1" data-name="Layer 1" xmlns="http://www.w3.org/2000/svg" viewBox="0 0 32 32"><defs><style>.cls-1{fill:#333;}</style></defs><path class="cls-1" d="M9,12.75H7.72v3.32H9a1.66,1.66,0,0,0,0-3.32Z"/><path class="cls-1" d="M28,6H4A2,2,0,0,0,2,8V24a2,2,0,0,0,2,2H28a2,2,0,0,0,2-2V8A2,2,0,0,0,28,6ZM11.19,20.85l0,0L9.31,17.67H7.72v3.18H6v-9.7H9a3.33,3.33,0,0,1,3.45,3.27A2.68,2.68,0,0,1,11,17.06l-.09,0,2.44,3.75ZM16,21a4.15,4.15,0,0,1-3.25-1.54l0,0,1.06-1.17,0,0A3,3,0,0,0,16,19.42c1,0,1.59-.49,1.59-1.24a1.13,1.13,0,0,0-.63-1.1,5.34,5.34,0,0,0-1.19-.45c-2.08-.65-2.89-1.45-2.89-2.86A2.94,2.94,0,0,1,16.1,11a4,4,0,0,1,2.82,1.11l0,0L17.87,13.4l0,0a2.39,2.39,0,0,0-1.72-.78,1.29,1.29,0,0,0-1.38,1.19,1,1,0,0,0,.62.92,9.76,9.76,0,0,0,1.35.5v0c1.94.65,2.73,1.51,2.73,3C19.43,19.83,18,21,16,21Zm6.57,0a4.15,4.15,0,0,1-3.25-1.54l0,0,1.06-1.17,0,0a3,3,0,0,0,2.2,1.12c1,0,1.59-.49,1.59-1.24a1.13,1.13,0,0,0-.63-1.1,5.34,5.34,0,0,0-1.19-.45c-2.08-.65-2.89-1.45-2.89-2.86A2.94,2.94,0,0,1,22.67,11a4,4,0,0,1,2.82,1.11l0,0L24.44,13.4l0,0a2.39,2.39,0,0,0-1.72-.78,1.29,1.29,0,0,0-1.38,1.19,1,1,0,0,0,.62.92,9.76,9.76,0,0,0,1.35.5v0l0,0c1.93.65,2.72,1.51,2.72,3C26,19.83,24.59,21,22.58,21Z"/></svg>