<svg id="Layer_1" data-name="Layer 1" xmlns="http://www.w3.org/2000/svg" viewBox="0 0 32 32"><defs><style>.cls-1{fill:#333;}</style></defs><path class="cls-1" d="M29.35,23.89l-4.62-4.62a2.22,2.22,0,0,0-3.14,0L19.2,21.66A1.08,1.08,0,0,1,18,21.9a15.1,15.1,0,0,1-4.85-3.06A15.1,15.1,0,0,1,10.1,14a1.08,1.08,0,0,1,.24-1.19l2.39-2.39a2.22,2.22,0,0,0,0-3.14L8.11,2.65A2.22,2.22,0,0,0,5,2.65L2.65,5A2.25,2.25,0,0,0,2,6.6,22.74,22.74,0,0,0,25.4,30,2.25,2.25,0,0,0,27,29.35L29.35,27A2.22,2.22,0,0,0,29.35,23.89Z"/></svg>