<svg id="Layer_1" data-name="Layer 1" xmlns="http://www.w3.org/2000/svg" viewBox="0 0 32 32"><defs><style>.cls-1{fill:#333;}</style></defs><rect class="cls-1" x="14" y="12" width="8" height="2"/><rect class="cls-1" x="10" y="12" width="2" height="2"/><rect class="cls-1" x="14" y="17" width="8" height="2"/><rect class="cls-1" x="10" y="17" width="2" height="2"/><rect class="cls-1" x="14" y="22" width="8" height="2"/><rect class="cls-1" x="10" y="22" width="2" height="2"/><path class="cls-1" d="M21,10h6L19,2V8A2,2,0,0,0,21,10Z"/><path class="cls-1" d="M25,28H7V4H17V2H7A2,2,0,0,0,5,4V28a2,2,0,0,0,2,2H25a2,2,0,0,0,2-2V12H25Z"/></svg>