<svg id="Layer_1" data-name="Layer 1" xmlns="http://www.w3.org/2000/svg" viewBox="0 0 32 32"><defs><style>.cls-1{fill:#333;}</style></defs><path class="cls-1" d="M22.6,3.07a7.52,7.52,0,0,0-6.5,3.62,7.52,7.52,0,0,0-14,3.74C2,20.18,15.86,29,15.86,29S30,20.48,30.06,10.73A7.57,7.57,0,0,0,22.6,3.07Zm-1,19a46.06,46.06,0,0,1-5.71,4.58,46.71,46.71,0,0,1-5.61-4.7C7.41,19.06,4,14.77,4.06,10.46a5.57,5.57,0,0,1,5.6-5.53A5.5,5.5,0,0,1,14.37,7.7l1.69,2.9,1.75-2.86a5.48,5.48,0,0,1,4.77-2.67,5.57,5.57,0,0,1,5.48,5.64C28,15,24.52,19.24,21.6,22Z"/></svg>