<svg id="Layer_1" data-name="Layer 1" xmlns="http://www.w3.org/2000/svg" viewBox="0 0 32 32"><defs><style>.cls-1{fill:#333;}</style></defs><polygon class="cls-1" points="17 8 17 15 25 15 25 13 19 13 19 8 17 8"/><rect class="cls-1" x="2" y="18" width="3" height="2"/><rect class="cls-1" x="2" y="23" width="3" height="2"/><rect class="cls-1" x="7" y="18" width="7" height="2"/><rect class="cls-1" x="7" y="23" width="7" height="2"/><rect class="cls-1" x="2" y="28" width="3" height="2"/><rect class="cls-1" x="7" y="28" width="7" height="2"/><path class="cls-1" d="M19,2A11,11,0,0,0,8.42,16h2.11A8.81,8.81,0,0,1,10,13a9,9,0,1,1,9,9,8.81,8.81,0,0,1-3-.53v2.11A11,11,0,1,0,19,2Z"/></svg>