<svg id="Layer_1" data-name="Layer 1" xmlns="http://www.w3.org/2000/svg" viewBox="0 0 32 32"><defs><style>.cls-1{fill:#333;}</style></defs><path class="cls-1" d="M28,2H24a2,2,0,0,0-2,2V8h8V4A2,2,0,0,0,28,2Z"/><path class="cls-1" d="M22,17H13v6H23v7h5a2,2,0,0,0,2-2V10H22Z"/><path class="cls-1" d="M13,28a2,2,0,0,0,2,2h6V25H13Z"/><path class="cls-1" d="M2,21a2,2,0,0,0,2,2H5v5a2,2,0,0,0,2,2H9a2,2,0,0,0,2-2V17H2Z"/><path class="cls-1" d="M7,4A2,2,0,0,0,5,2H4A2,2,0,0,0,2,4V7H7Z"/><polygon class="cls-1" points="10 10 2 10 2 12 12 12 12 2 10 2 10 10"/></svg>