<svg id="Layer_1" data-name="Layer 1" xmlns="http://www.w3.org/2000/svg" viewBox="0 0 32 32"><defs><style>.cls-1{fill-rule:evenodd;}</style></defs><path class="cls-1" d="M6,6h7v7H6ZM4,6A2,2,0,0,1,6,4h7a2,2,0,0,1,2,2v7a2,2,0,0,1-2,2H6a2,2,0,0,1-2-2ZM19,6h7v7H19ZM17,6a2,2,0,0,1,2-2h7a2,2,0,0,1,2,2v7a2,2,0,0,1-2,2H19a2,2,0,0,1-2-2ZM13,19H6v7h7ZM6,17a2,2,0,0,0-2,2v7a2,2,0,0,0,2,2h7a2,2,0,0,0,2-2V19a2,2,0,0,0-2-2Zm13,2h7v7H19Zm-2,0a2,2,0,0,1,2-2h7a2,2,0,0,1,2,2v7a2,2,0,0,1-2,2H19a2,2,0,0,1-2-2Z"/></svg>