<svg id="Layer_1" data-name="Layer 1" xmlns="http://www.w3.org/2000/svg" viewBox="0 0 32 32"><defs><style>.cls-1{fill:#333;}</style></defs><path class="cls-1" d="M5,14H2v2H5V28H2v2H5a2,2,0,0,0,2-2V16A2,2,0,0,0,5,14Z"/><path class="cls-1" d="M28,14H20s2-6,2-8V5a2.94,2.94,0,0,0-2.5-3H18c-.53,0-1,1-1,1L15,7,9.59,13.41A2,2,0,0,0,9,14.83V26a4,4,0,0,0,4,4H23.17a2,2,0,0,0,1.42-.59l4.82-4.82A2,2,0,0,0,30,23.17V16A2,2,0,0,0,28,14Zm0,9.17L23.17,28H13a2,2,0,0,1-2-2V14.83l.06-.06,0-.07,5.42-6.41.15-.18.11-.22L18.74,4h.65A1.06,1.06,0,0,1,20,5V6a41.25,41.25,0,0,1-1.9,7.37L17.23,16H28Z"/></svg>