<svg id="Layer_1" data-name="Layer 1" xmlns="http://www.w3.org/2000/svg" viewBox="0 0 32 32"><defs><style>.cls-1{fill-rule:evenodd;}</style></defs><path class="cls-1" d="M20,4H4V22h8l.5,2H4a2,2,0,0,1-2-2V4A2,2,0,0,1,4,2H20a2,2,0,0,1,2,2v6l-2,1ZM6,7H17V9H6Zm0,4h8v2H6Zm5,4H6v2h5Zm11-2.12L30,17l0,.65a21.52,21.52,0,0,1-2.15,8.21,8.71,8.71,0,0,1-3.27,3c-.59.34-1.13.62-1.53.8l-.49.22-.13.06h-.06L22,29l-.37.93h-.06l-.13-.06L21,29.63c-.4-.18-.94-.46-1.53-.8a8.71,8.71,0,0,1-3.27-3A21.52,21.52,0,0,1,14,17.66L14,17Zm-.37,17L22,29l.37.93-.37.15Zm.37-2,.2-.09c.36-.17.85-.41,1.37-.72a6.76,6.76,0,0,0,2.52-2.17A19.34,19.34,0,0,0,28,18.18L22,15.12l-5.95,3.06a19.34,19.34,0,0,0,1.86,6.75,6.76,6.76,0,0,0,2.52,2.17c.52.31,1,.55,1.37.72Zm.83-3.86,3-4.5L24,18.5l-2.16,3.43-1.63-1.64-1.42,1.42,2.5,2.5a1,1,0,0,0,.81.29A1,1,0,0,0,22.83,24.05Z"/></svg>