<svg id="Layer_1" data-name="Layer 1" xmlns="http://www.w3.org/2000/svg" viewBox="0 0 32 32"><defs><style>.cls-1{fill:#333;fill-rule:evenodd;}</style></defs><path class="cls-1" d="M12.81,10.47H11a5.62,5.62,0,0,0,3.19,4.14A9.9,9.9,0,0,1,12.81,10.47Zm1.89,0h3.66a8,8,0,0,1-1.21,3.43,7.35,7.35,0,0,1-.62.84,10.37,10.37,0,0,1-.61-.84A8,8,0,0,1,14.7,10.47ZM18.36,8.6H14.7a8.05,8.05,0,0,1,1.22-3.44,7.72,7.72,0,0,1,.61-.84,7.67,7.67,0,0,1,.62.84A8.06,8.06,0,0,1,18.36,8.6Zm1.89,1.87a9.81,9.81,0,0,1-1.31,4.1,5.67,5.67,0,0,0,3.1-4.1Zm1.8-1.87h-1.8a9.85,9.85,0,0,0-1.36-4.19A5.62,5.62,0,0,1,22.05,8.6Zm-9.24,0H11A5.64,5.64,0,0,1,14.2,4.37,10,10,0,0,0,12.81,8.6ZM24,9.5A7.5,7.5,0,1,1,16.5,2,7.5,7.5,0,0,1,24,9.5ZM7,22H5v5H7Zm1.94-1.34A1,1,0,0,0,8,20H3v9H8a1,1,0,0,0,.71-.3L18.54,30a4.88,4.88,0,0,0,2.83-.5l6-3.07a3.08,3.08,0,0,0,1.28-4.17l0-.08a3,3,0,0,0-3.79-1.34l-4.26,1.89a3,3,0,0,0-2.42-3.05L15,19a2,2,0,0,0-.93.06Zm.06,6V22.76L14.65,21l3.12.6a1,1,0,0,1,.79,1.16l-.11.69L14,23l-.2,2,5.2.53,6.58-2.92a1,1,0,0,1,1.26.45l0,.08a1,1,0,0,1-.42,1.39l-6,3.07a2.91,2.91,0,0,1-1.69.3Z"/></svg>