<svg id="Layer_1" data-name="Layer 1" xmlns="http://www.w3.org/2000/svg" viewBox="0 0 32 32"><defs><style>.cls-1{fill-rule:evenodd;}</style></defs><path class="cls-1" d="M5.5,4h10a1,1,0,0,1,1,1V6H4.5V5A1,1,0,0,1,5.5,4Zm-1,4V22h5a11.78,11.78,0,0,0,.37,2H4.5v1a1,1,0,0,0,1,1h5.2A11.3,11.3,0,0,0,12,28H5.5a3,3,0,0,1-3-3V5a3,3,0,0,1,3-3h10a3,3,0,0,1,3,3v5.18a11.19,11.19,0,0,0-2,.57V8Zm16,20a7,7,0,1,0-7-7A7,7,0,0,0,20.5,28Zm0,2a9,9,0,1,0-9-9A9,9,0,0,0,20.5,30Zm-3.3-7.33v1.52h2.35V26h1.93V24.2h2.31V22.67H21.48v-.89h2.31V20.25H22.38L24.5,16H22.36l-1.8,4.25L18.81,16H16.5l2.12,4.25H17.2v1.53h2.32v.89Z"/></svg>