<svg version="1.1" id="Layer_1" xmlns="http://www.w3.org/2000/svg" x="0" y="0" viewBox="0 0 32 32" style="enable-background:new 0 0 32 32" xml:space="preserve"><style>.st0{fill:none}</style><path class="st0" d="M6 7h10v2H6zM6 15h4v2H6zM6 11h7v2H6z"/><path d="M21 11.5V4c0-1.1-.9-2-2-2H4c-1.1 0-2 .9-2 2v18c0 1.1.9 2 2 2h9.3c-.9-2.6-1.3-5.3-1.3-8l9-4.5zM6 7h10v2H6V7zm0 4h7v2H6v-2zm4 6H6v-2h4v2z"/><path d="m22 13-8 4.1v.6c.2 2.8.9 5.6 2.1 8.1.8 1.2 1.9 2.3 3.2 2.9.6.3 1.1.6 1.5.8l.5.2.1.1.6.2.4-.2.1-.1.5-.2c.4-.2.9-.5 1.5-.8 1.3-.7 2.4-1.7 3.2-2.9 1.3-2.5 2-5.3 2.2-8.1v-.6L22 13zm.8 12c-.2.3-.4.4-.7.5-.3 0-.6-.1-.8-.3L18 22l1.4-1.4 2.4 2.3 2.8-4.5 1.8 1-3.6 5.6z"/></svg>