<svg id="Layer_1" data-name="Layer 1" xmlns="http://www.w3.org/2000/svg" viewBox="0 0 32 32"><defs><style>.cls-1{fill:#333;}</style></defs><polygon class="cls-1" points="4 24 2 24 2 30 8 30 8 28 4 28 4 24"/><polygon class="cls-1" points="4 4 8 4 8 2 2 2 2 8 4 8 4 4"/><polygon class="cls-1" points="28 28 24 28 24 30 30 30 30 24 28 24 28 28"/><polygon class="cls-1" points="24 2 24 4 28 4 28 8 30 8 30 2 24 2"/><path class="cls-1" d="M6,26H26V6H6Zm12-2H16V22h2ZM18,8h6V18H22V14H18ZM8,18h2V16h2v2h4V16H14V14H8V8h6v2h2v2H14v2h2v2h4v4h4v2H22v2H20V20H18V18H16v2H14v4H8Z"/><rect class="cls-1" x="20" y="10" width="2" height="2"/><rect class="cls-1" x="10" y="20" width="2" height="2"/><rect class="cls-1" x="10" y="10" width="2" height="2"/></svg>