<svg id="Layer_1" data-name="Layer 1" xmlns="http://www.w3.org/2000/svg" viewBox="0 0 32 32"><defs><style>.cls-1,.cls-2{fill:#333;}.cls-1{fill-rule:evenodd;}</style></defs><path class="cls-1" d="M22,5H11V3A1,1,0,0,0,9,3V5.19A3,3,0,0,0,7,8V27a3,3,0,0,0,3,3H22a3,3,0,0,0,3-3V8A3,3,0,0,0,22,5Zm1,22a1,1,0,0,1-1,1H10a1,1,0,0,1-1-1V8a1,1,0,0,1,1-1H22a1,1,0,0,1,1,1Z"/><path class="cls-1" d="M11,18H21V9H11Zm2-7h6v5H13Z"/><rect class="cls-2" x="11" y="20" width="2" height="2"/><rect class="cls-2" x="15" y="20" width="2" height="2"/><rect class="cls-2" x="11" y="24" width="2" height="2"/><rect class="cls-2" x="15" y="24" width="2" height="2"/><rect class="cls-2" x="19" y="20" width="2" height="2"/><rect class="cls-2" x="19" y="24" width="2" height="2"/></svg>