<svg id="Layer_1" data-name="Layer 1" xmlns="http://www.w3.org/2000/svg" viewBox="0 0 32 32"><defs><style>.cls-1{fill:#333;}</style></defs><path class="cls-1" d="M7,13.71V11h3V6L22,6v5h3v2.68l2,.6V11a2,2,0,0,0-2-2H24V6a2,2,0,0,0-2-2L17,4V2H15V4L10,4A2,2,0,0,0,8,6V9H7a2,2,0,0,0-2,2v3.29Z"/><rect class="cls-1" x="11.98" y="8.01" width="2" height="3" transform="translate(-0.03 0.04) rotate(-0.2)"/><rect class="cls-1" x="17.98" y="7.99" width="2" height="3" transform="translate(-0.03 0.06) rotate(-0.19)"/><path class="cls-1" d="M28,27a1.78,1.78,0,0,1-1.6,1,1.81,1.81,0,0,1-1.6-1l-2,0a1.78,1.78,0,0,1-3.2.05l-2,0a1.77,1.77,0,0,1-3.2.05l-2,0a1.78,1.78,0,0,1-3.2,0l-2,0A1.77,1.77,0,0,1,4,27v0H2A3.55,3.55,0,0,0,5.65,30a3.8,3.8,0,0,0,2.59-1,3.86,3.86,0,0,0,2.61,1,3.8,3.8,0,0,0,2.59-1,3.81,3.81,0,0,0,2.61,1,3.76,3.76,0,0,0,2.59-1,3.75,3.75,0,0,0,2.61,1,3.79,3.79,0,0,0,2.59-1,3.79,3.79,0,0,0,2.61,1A3.54,3.54,0,0,0,30,27Z"/><path class="cls-1" d="M5.7,25H7.81L5.55,18.35l9.45-3L15,25h2l0-9.6,9.46,2.87L24.26,25h2.1l2-6.06A2,2,0,0,0,27,16.36L16.58,13.18a2,2,0,0,0-1.18,0L5,16.44A2,2,0,0,0,3.66,19Z"/></svg>