<svg id="Layer_1" data-name="Layer 1" xmlns="http://www.w3.org/2000/svg" viewBox="0 0 32 32"><defs><style>.cls-1{fill:#333;}</style></defs><path class="cls-1" d="M23.73,12.07l2.33-2.33c1.52-1.52,5.32-5.32,3.42-7.22s-5.7,1.9-7.22,3.42L19.93,8.27,4.74,5.74a2.16,2.16,0,0,0-1.87.6l-.56.56a1.08,1.08,0,0,0,.18,1.66L12.9,15.3l-3,3L5.59,17.25a2.14,2.14,0,0,0-2,.56l-.49.49A1.08,1.08,0,0,0,3.22,20l3.47,2.31.17-.16a2.58,2.58,0,0,0,.59,2.44,2.56,2.56,0,0,0,2.45.59l-.17.17L12,28.78a1.08,1.08,0,0,0,1.66.16l.49-.49a2.14,2.14,0,0,0,.56-2l-1.07-4.29,3-3,6.74,10.41a1.08,1.08,0,0,0,1.66.18l.56-.56a2.16,2.16,0,0,0,.6-1.87Z"/></svg>