<svg id="Layer_1" data-name="Layer 1" xmlns="http://www.w3.org/2000/svg" viewBox="0 0 32 32"><defs><style>.cls-1{fill:#333;}</style></defs><polygon class="cls-1" points="17 8 17 15 25 15 25 13 19 13 19 8 17 8"/><path class="cls-1" d="M13,21.5A5.5,5.5,0,1,0,7.5,27a5.41,5.41,0,0,0,3.05-.93L14.48,30,16,28.48l-3.93-3.93A5.41,5.41,0,0,0,13,21.5ZM7.5,25A3.5,3.5,0,1,1,11,21.5,3.5,3.5,0,0,1,7.5,25Z"/><path class="cls-1" d="M19,2A11,11,0,0,0,8,13c0,.35,0,.69.05,1a7.49,7.49,0,0,1,2.08.45A9,9,0,1,1,19,22a8.89,8.89,0,0,1-4-1c0,.15,0,.3,0,.46a7.7,7.7,0,0,1-.19,1.67A11,11,0,1,0,19,2Z"/></svg>