<svg id="Layer_1" data-name="Layer 1" xmlns="http://www.w3.org/2000/svg" viewBox="0 0 32 32"><defs><style>.cls-1{fill:#333;}</style></defs><path class="cls-1" d="M10,13.41A11.47,11.47,0,0,1,11.05,12c-1.36-.36-3.19-1-3.19-3A2.74,2.74,0,0,1,9.59,6.72,3.53,3.53,0,0,1,10,6.56V5h2V6.48a6.5,6.5,0,0,1,2.78,1.38L13.5,9.36c-1.13-.91-2.24-1.24-3-.91a1,1,0,0,0-.62.62c0,.51.38.74,2,1.16.28.08.58.16.88.26A12,12,0,0,1,19.49,8,9,9,0,1,0,8,19.49a12.29,12.29,0,0,1,1-4.36,8.52,8.52,0,0,1-2-1.21l1.26-1.51A6.92,6.92,0,0,0,10,13.41Z"/><path class="cls-1" d="M20,10A10,10,0,1,0,30,20,10,10,0,0,0,20,10Zm5,8.5V20H21.17l-.17.27V21.5h4V23H21v3H19V23H15V21.5h4V20.27L18.83,20H15V18.5h2.87L15,14h2.31L20,18.15,22.69,14H25l-2.87,4.5Z"/></svg>