<svg id="Layer_1" data-name="Layer 1" xmlns="http://www.w3.org/2000/svg" viewBox="0 0 32 32"><defs><style>.cls-1{fill:#333;}</style></defs><circle class="cls-1" cx="7.5" cy="28.5" r="1.5"/><circle class="cls-1" cx="14.5" cy="28.5" r="1.5"/><polygon class="cls-1" points="6 14 2 14 2 16 4.34 16 6 24.99 6 25 6 25 7 25 8 25 16 25 17 18 6.73 18 6 14"/><path class="cls-1" d="M19,2A11,11,0,0,0,8,13a11.46,11.46,0,0,0,.06,1.17l.27,1.45.09.38H19.31L19,18.28,18.17,24c.27,0,.55,0,.83,0A11,11,0,0,0,19,2Zm7,12H18V7h2v5h6Z"/></svg>