<svg id="Layer_1" data-name="Layer 1" xmlns="http://www.w3.org/2000/svg" viewBox="0 0 32 32"><defs><style>.cls-1{fill:#333;fill-rule:evenodd;}</style></defs><path class="cls-1" d="M28,13h-.91A11.62,11.62,0,0,0,26,10.28l.64-.64a2,2,0,0,0,0-2.83L25.19,5.39a2,2,0,0,0-2.83,0L21.72,6A11.62,11.62,0,0,0,19,4.91V4a2,2,0,0,0-2-2H15a2,2,0,0,0-2,2v.91A11.62,11.62,0,0,0,10.28,6l-.64-.64a2,2,0,0,0-2.83,0L5.39,6.81a2,2,0,0,0,0,2.83l.64.64A11.62,11.62,0,0,0,4.91,13H4a2,2,0,0,0-2,2v2a2,2,0,0,0,2,2h.91A11.62,11.62,0,0,0,6,21.72l-.64.64a2,2,0,0,0,0,2.83l1.42,1.42a2,2,0,0,0,2.83,0l.64-.64A11.62,11.62,0,0,0,13,27.09V28a2,2,0,0,0,2,2h2a2,2,0,0,0,2-2v-.91A11.62,11.62,0,0,0,21.72,26l.64.64a2,2,0,0,0,2.83,0l1.42-1.42a2,2,0,0,0,0-2.83L26,21.72A11.62,11.62,0,0,0,27.09,19H28a2,2,0,0,0,2-2V15A2,2,0,0,0,28,13ZM16,22a6,6,0,1,1,6-6A6,6,0,0,1,16,22Z"/></svg>