<svg id="Layer_1" data-name="Layer 1" xmlns="http://www.w3.org/2000/svg" viewBox="0 0 32 32"><defs><style>.cls-1{fill:#333;}</style></defs><path class="cls-1" d="M14,8a6,6,0,0,1,5.63,3.94l.65,1.79,1.83-.57A2.89,2.89,0,0,1,23,13a2.94,2.94,0,0,1,2.87,3.81l-.36,1.26,1,.83A4,4,0,0,1,24,26H9a5,5,0,0,1-2.12-9.52l1.26-.59L8,14.5A4.07,4.07,0,0,1,8,14a6,6,0,0,1,6-6m0-2a8,8,0,0,0-8,8c0,.23,0,.45,0,.67A7,7,0,0,0,9,28H24a6,6,0,0,0,3.79-10.65A4.93,4.93,0,0,0,23,11a4.9,4.9,0,0,0-1.49.25A8,8,0,0,0,14,6Z"/></svg>