<svg id="Layer_1" data-name="Layer 1" xmlns="http://www.w3.org/2000/svg" viewBox="0 0 32 32"><defs><style>.cls-1{fill:#333;}.cls-2{fill:none;}</style></defs><path class="cls-1" d="M16,2A14,14,0,1,0,30,16,14,14,0,0,0,16,2Zm0,26A12,12,0,1,1,28,16,12,12,0,0,1,16,28Z"/><polygon class="cls-1" points="19.59 9 16 14.32 12.41 9 10 9 13.37 14 10 14 10 16 14.72 16 15 16.41 15 18 10 18 10 20 15 20 15 24 17 24 17 20 22 20 22 18 17 18 17 16.41 17.28 16 22 16 22 14 18.63 14 22 9 19.59 9"/><rect class="cls-2" width="32" height="32"/></svg>